<?xml version="1.0" encoding="utf-8"?>
<!-- Generator: Adobe Illustrator 23.0.0, SVG Export Plug-In . SVG Version: 6.00 Build 0)  -->
<svg version="1.1" id="レイヤー_1" xmlns="http://www.w3.org/2000/svg" xmlns:xlink="http://www.w3.org/1999/xlink" x="0px"
	 y="0px" viewBox="0 0 640 640" style="enable-background:new 0 0 640 640;" xml:space="preserve">
<style type="text/css">
	.st0{fill:#B3B3B3;}
</style>
<g>
	<path class="st0" d="M603,307H450V69c0-6.6-5.4-12-12-12H194c-6.6,0-12,5.4-12,12v238H43c-6.6,0-12,5.4-12,12v261
		c0,6.6,5.4,12,12,12h560c6.6,0,12-5.4,12-12V319C615,312.4,609.6,307,603,307z M210,97c0-6.6,5.4-12,12-12h187c6.6,0,12,5.4,12,12
		v210H210V97z"/>
</g>
</svg>
